<svg xmlns="http://www.w3.org/2000/svg" width="150" height="39" fill="none" viewBox="0 0 150 39"><path fill="#000" d="M145.867 11.555C145.143 11.555 144.503 11.398 143.945 11.086 143.388 10.768 142.951 10.287 142.633 9.641 142.315 8.995 142.156 8.193 142.156 7.234 142.156 6.375 142.315 5.622 142.633 4.977 142.956 4.326 143.398 3.826 143.961 3.477 144.523 3.122 145.159 2.945 145.867 2.945 146.565 2.945 147.177 3.107 147.703 3.43 148.229 3.753 148.635 4.227 148.922 4.852 149.214 5.471 149.359 6.221 149.359 7.102 149.359 7.263 149.359 7.424 149.359 7.586H142.891V6.43H148.539L147.836 6.813C147.836 6.219 147.758 5.724 147.602 5.328 147.451 4.932 147.227 4.638 146.93 4.445 146.638 4.253 146.279 4.156 145.852 4.156 145.419 4.156 145.036 4.271 144.703 4.5 144.37 4.729 144.107 5.068 143.914 5.516 143.727 5.964 143.633 6.503 143.633 7.133V7.219C143.633 7.911 143.727 8.49 143.914 8.953 144.102 9.417 144.37 9.763 144.719 9.992 145.068 10.221 145.484 10.336 145.969 10.336 146.474 10.336 146.893 10.188 147.227 9.891 147.565 9.589 147.773 9.161 147.852 8.609H149.312C149.25 9.193 149.073 9.706 148.781 10.148 148.49 10.591 148.094 10.938 147.594 11.188 147.099 11.432 146.523 11.555 145.867 11.555ZM136.898 3.172H138.32V5.133L138.211 5.086C138.294 4.669 138.448 4.305 138.672 3.992 138.901 3.68 139.195 3.438 139.555 3.266 139.914 3.094 140.328 3.008 140.797 3.008 140.917 3.008 141.039 3.018 141.164 3.039V4.477C141.065 4.456 140.969 4.44 140.875 4.43 140.781 4.419 140.682 4.414 140.578 4.414 140.099 4.414 139.693 4.51 139.359 4.703 139.026 4.896 138.771 5.185 138.594 5.57 138.422 5.951 138.336 6.424 138.336 6.992V11.328H136.898V3.172ZM131.508 11.555C130.784 11.555 130.143 11.398 129.586 11.086 129.029 10.768 128.591 10.287 128.273 9.641 127.956 8.995 127.797 8.193 127.797 7.234 127.797 6.375 127.956 5.622 128.273 4.977 128.596 4.326 129.039 3.826 129.602 3.477 130.164 3.122 130.799 2.945 131.508 2.945 132.206 2.945 132.818 3.107 133.344 3.43 133.87 3.753 134.276 4.227 134.562 4.852 134.854 5.471 135 6.221 135 7.102 135 7.263 135 7.424 135 7.586H128.531V6.43H134.18L133.477 6.813C133.477 6.219 133.398 5.724 133.242 5.328 133.091 4.932 132.867 4.638 132.57 4.445 132.279 4.253 131.919 4.156 131.492 4.156 131.06 4.156 130.677 4.271 130.344 4.5 130.01 4.729 129.747 5.068 129.555 5.516 129.367 5.964 129.273 6.503 129.273 7.133V7.219C129.273 7.911 129.367 8.49 129.555 8.953 129.742 9.417 130.01 9.763 130.359 9.992 130.708 10.221 131.125 10.336 131.609 10.336 132.115 10.336 132.534 10.188 132.867 9.891 133.206 9.589 133.414 9.161 133.492 8.609H134.953C134.891 9.193 134.714 9.706 134.422 10.148 134.13 10.591 133.734 10.938 133.234 11.188 132.74 11.432 132.164 11.555 131.508 11.555ZM119.477.125H120.914V5.664L120.703 5.055C120.802 4.622 120.971 4.247 121.211 3.93 121.456 3.612 121.766 3.37 122.141 3.203 122.516 3.031 122.943 2.945 123.422 2.945 123.958 2.945 124.419 3.057 124.805 3.281 125.195 3.505 125.492 3.823 125.695 4.234 125.898 4.641 126 5.117 126 5.664V11.328H124.562V5.82C124.562 5.284 124.43 4.872 124.164 4.586 123.904 4.299 123.518 4.156 123.008 4.156 122.596 4.156 122.232 4.258 121.914 4.461 121.602 4.664 121.357 4.969 121.18 5.375 121.003 5.776 120.914 6.263 120.914 6.836V11.328H119.477V.125ZM110.523 11.555C109.799 11.555 109.159 11.398 108.602 11.086 108.044 10.768 107.607 10.287 107.289 9.641 106.971 8.995 106.812 8.193 106.812 7.234 106.812 6.375 106.971 5.622 107.289 4.977 107.612 4.326 108.055 3.826 108.617 3.477 109.18 3.122 109.815 2.945 110.523 2.945 111.221 2.945 111.833 3.107 112.359 3.43 112.885 3.753 113.292 4.227 113.578 4.852 113.87 5.471 114.016 6.221 114.016 7.102 114.016 7.263 114.016 7.424 114.016 7.586H107.547V6.43H113.195L112.492 6.813C112.492 6.219 112.414 5.724 112.258 5.328 112.107 4.932 111.883 4.638 111.586 4.445 111.294 4.253 110.935 4.156 110.508 4.156 110.076 4.156 109.693 4.271 109.359 4.5 109.026 4.729 108.763 5.068 108.57 5.516 108.383 5.964 108.289 6.503 108.289 7.133V7.219C108.289 7.911 108.383 8.49 108.57 8.953 108.758 9.417 109.026 9.763 109.375 9.992 109.724 10.221 110.141 10.336 110.625 10.336 111.13 10.336 111.549 10.188 111.883 9.891 112.221 9.589 112.43 9.161 112.508 8.609H113.969C113.906 9.193 113.729 9.706 113.438 10.148 113.146 10.591 112.75 10.938 112.25 11.188 111.755 11.432 111.18 11.555 110.523 11.555ZM98.523 3.172H100.055L102.359 9.906H102.086L104.344 3.172H105.805L102.844 11.328H101.516L98.523 3.172ZM95.633 3.172H97.07V11.328H95.633V3.172ZM96.352 1.922C96.18 1.922 96.018 1.88 95.867 1.797 95.721 1.708 95.604 1.591 95.516 1.445 95.432 1.294 95.391 1.133 95.391.961 95.391.789 95.432.63 95.516.484 95.604.333 95.721.216 95.867.133 96.018.044 96.18 0 96.352 0 96.523 0 96.682.044 96.828.133 96.979.216 97.096.333 97.18.484 97.268.63 97.313.789 97.313.961 97.313 1.133 97.268 1.294 97.18 1.445 97.096 1.591 96.979 1.708 96.828 1.797 96.682 1.88 96.523 1.922 96.352 1.922ZM91.867.125H93.305V11.328H91.867V.125ZM84.539.125H85.977V11.328H84.539V.125ZM80.773.125H82.211V11.328H80.773V.125ZM77.008 3.172H78.445V11.328H77.008V3.172ZM77.727 1.922C77.555 1.922 77.393 1.88 77.242 1.797 77.096 1.708 76.979 1.591 76.891 1.445 76.807 1.294 76.766 1.133 76.766.961 76.766.789 76.807.63 76.891.484 76.979.333 77.096.216 77.242.133 77.393.044 77.555 0 77.727 0 77.898 0 78.057.044 78.203.133 78.354.216 78.471.333 78.555.484 78.643.63 78.688.789 78.688.961 78.688 1.133 78.643 1.294 78.555 1.445 78.471 1.591 78.354 1.708 78.203 1.797 78.057 1.88 77.898 1.922 77.727 1.922ZM64.07 3.172H65.539L67.508 10.32H66.898L69.031 3.172H70.641L72.727 10.32H72.188L74.102 3.172H75.477L73.086 11.328H71.734L69.508 3.617H70.164L67.828 11.328H66.469L64.07 3.172ZM56.289 11.555C55.852 11.555 55.451 11.471 55.086 11.305 54.727 11.138 54.417 10.885 54.156 10.547 53.901 10.208 53.711 9.786 53.586 9.281L53.898 9.602V11.328H52.508V3.172H53.945V4.992L53.602 5.219C53.711 4.745 53.896 4.339 54.156 4 54.417 3.656 54.734 3.396 55.109 3.219 55.49 3.036 55.904 2.945 56.352 2.945 57.044 2.945 57.638 3.122 58.133 3.477 58.633 3.826 59.013 4.326 59.273 4.977 59.534 5.622 59.664 6.38 59.664 7.25 59.664 8.115 59.529 8.872 59.258 9.523 58.987 10.169 58.596 10.669 58.086 11.023 57.576 11.378 56.977 11.555 56.289 11.555ZM56.078 10.336C56.526 10.336 56.906 10.208 57.219 9.953 57.531 9.693 57.766 9.333 57.922 8.875 58.078 8.411 58.156 7.875 58.156 7.266 58.156 6.656 58.078 6.12 57.922 5.656 57.766 5.188 57.531 4.823 57.219 4.563 56.906 4.297 56.526 4.164 56.078 4.164 55.63 4.164 55.245 4.297 54.922 4.563 54.604 4.823 54.362 5.188 54.195 5.656 54.034 6.12 53.953 6.656 53.953 7.266 53.953 7.87 54.034 8.404 54.195 8.867 54.362 9.331 54.604 9.693 54.922 9.953 55.245 10.208 55.63 10.336 56.078 10.336ZM52.508 9.664H53.945V14.211H52.508V9.664ZM47.258 11.555C46.82 11.555 46.419 11.471 46.055 11.305 45.695 11.138 45.385 10.885 45.125 10.547 44.87 10.208 44.68 9.786 44.555 9.281L44.867 9.602V11.328H43.477V3.172H44.914V4.992L44.57 5.219C44.68 4.745 44.865 4.339 45.125 4 45.385 3.656 45.703 3.396 46.078 3.219 46.458 3.036 46.872 2.945 47.32 2.945 48.013 2.945 48.607 3.122 49.102 3.477 49.602 3.826 49.982 4.326 50.242 4.977 50.503 5.622 50.633 6.38 50.633 7.25 50.633 8.115 50.497 8.872 50.227 9.523 49.956 10.169 49.565 10.669 49.055 11.023 48.544 11.378 47.945 11.555 47.258 11.555ZM47.047 10.336C47.495 10.336 47.875 10.208 48.188 9.953 48.5 9.693 48.734 9.333 48.891 8.875 49.047 8.411 49.125 7.875 49.125 7.266 49.125 6.656 49.047 6.12 48.891 5.656 48.734 5.188 48.5 4.823 48.188 4.563 47.875 4.297 47.495 4.164 47.047 4.164 46.599 4.164 46.214 4.297 45.891 4.563 45.573 4.823 45.331 5.188 45.164 5.656 45.003 6.12 44.922 6.656 44.922 7.266 44.922 7.87 45.003 8.404 45.164 8.867 45.331 9.331 45.573 9.693 45.891 9.953 46.214 10.208 46.599 10.336 47.047 10.336ZM43.477 9.664H44.914V14.211H43.477V9.664ZM37.234 11.555C36.729 11.555 36.273 11.458 35.867 11.266 35.461 11.068 35.141 10.787 34.906 10.422 34.677 10.057 34.563 9.633 34.563 9.148 34.563 8.404 34.787 7.826 35.234 7.414 35.688 6.997 36.32 6.724 37.133 6.594L38.43 6.383C38.763 6.326 39.023 6.263 39.211 6.195 39.398 6.122 39.537 6.029 39.625 5.914 39.714 5.794 39.758 5.635 39.758 5.438 39.758 5.219 39.698 5.01 39.578 4.813 39.458 4.615 39.273 4.453 39.023 4.328 38.773 4.203 38.464 4.141 38.094 4.141 37.573 4.141 37.148 4.279 36.82 4.555 36.497 4.826 36.32 5.201 36.289 5.68H34.781C34.797 5.159 34.945 4.693 35.227 4.281 35.508 3.865 35.896 3.539 36.391 3.305 36.885 3.065 37.453 2.945 38.094 2.945 38.745 2.945 39.305 3.063 39.773 3.297 40.242 3.526 40.599 3.862 40.844 4.305 41.094 4.747 41.219 5.276 41.219 5.891V9.438C41.219 9.818 41.245 10.169 41.297 10.492 41.354 10.81 41.435 11.013 41.539 11.102V11.328H40.016C39.953 11.104 39.901 10.844 39.859 10.547 39.823 10.245 39.805 9.951 39.805 9.664L40.063 9.742C39.938 10.081 39.74 10.388 39.469 10.664 39.198 10.94 38.87 11.159 38.484 11.32 38.099 11.477 37.682 11.555 37.234 11.555ZM37.555 10.352C38.008 10.352 38.404 10.25 38.742 10.047 39.081 9.839 39.339 9.56 39.516 9.211 39.698 8.857 39.789 8.464 39.789 8.031V6.813L39.953 6.836C39.802 7.008 39.609 7.143 39.375 7.242 39.146 7.341 38.836 7.43 38.445 7.508L37.586 7.68C37.06 7.789 36.675 7.956 36.43 8.18 36.185 8.398 36.063 8.706 36.063 9.102 36.063 9.482 36.203 9.786 36.484 10.016 36.771 10.24 37.128 10.352 37.555 10.352ZM26.164 3.172H27.586V5.133L27.477 5.086C27.56 4.669 27.714 4.305 27.938 3.992 28.167 3.68 28.461 3.438 28.82 3.266 29.18 3.094 29.594 3.008 30.063 3.008 30.182 3.008 30.305 3.018 30.43 3.039V4.477C30.331 4.456 30.234 4.44 30.141 4.43 30.047 4.419 29.948 4.414 29.844 4.414 29.365 4.414 28.958 4.51 28.625 4.703 28.292 4.896 28.037 5.185 27.859 5.57 27.688 5.951 27.602 6.424 27.602 6.992V11.328H26.164V3.172ZM19.969 11.555C19.417 11.555 18.94 11.448 18.539 11.234 18.143 11.021 17.839 10.711 17.625 10.305 17.417 9.898 17.313 9.409 17.313 8.836V3.172H18.75V8.672C18.75 9.198 18.888 9.607 19.164 9.898 19.44 10.19 19.841 10.336 20.367 10.336 20.768 10.336 21.12 10.237 21.422 10.039 21.729 9.841 21.969 9.549 22.141 9.164 22.313 8.773 22.398 8.299 22.398 7.742V3.172H23.836V11.328H22.43V8.836L22.672 9.438C22.552 9.87 22.367 10.245 22.117 10.563 21.872 10.88 21.568 11.125 21.203 11.297 20.839 11.469 20.427 11.555 19.969 11.555ZM11.867 11.555C11.138 11.555 10.497 11.378 9.945 11.023 9.393 10.669 8.966 10.167 8.664 9.516 8.367 8.865 8.219 8.107 8.219 7.242 8.219 6.378 8.367 5.622 8.664 4.977 8.966 4.326 9.393 3.826 9.945 3.477 10.497 3.122 11.138 2.945 11.867 2.945 12.596 2.945 13.237 3.122 13.789 3.477 14.341 3.826 14.766 4.326 15.063 4.977 15.365 5.622 15.516 6.378 15.516 7.242 15.516 8.107 15.365 8.865 15.063 9.516 14.766 10.167 14.341 10.669 13.789 11.023 13.237 11.378 12.596 11.555 11.867 11.555ZM11.867 10.336C12.315 10.336 12.698 10.216 13.016 9.977 13.339 9.732 13.583 9.378 13.75 8.914 13.922 8.451 14.008 7.893 14.008 7.242 14.008 6.263 13.82 5.505 13.445 4.969 13.07 4.432 12.544 4.164 11.867 4.164 11.419 4.164 11.034 4.284 10.711 4.523 10.393 4.763 10.148 5.115 9.977 5.578 9.81 6.036 9.727 6.591 9.727 7.242 9.727 7.893 9.81 8.451 9.977 8.914 10.148 9.378 10.393 9.732 10.711 9.977 11.034 10.216 11.419 10.336 11.867 10.336ZM3.391 6.18 3.711 7.539 0 .125H1.648L4.414 6H3.867L6.703.125H8.266L4.539 7.539 4.859 6.18V11.328H3.391V6.18ZM140.19 38.465C139.789 38.465 139.448 38.403 139.165 38.28 138.882 38.157 138.661 37.957 138.502 37.679 138.347 37.396 138.27 37.029 138.27 36.578V32.224H137.012V31.191H137.135C137.445 31.191 137.693 31.144 137.88 31.048 138.071 30.952 138.215 30.804 138.311 30.604 138.406 30.403 138.463 30.136 138.481 29.804L138.522 29.1H139.527V31.301L139.377 31.191H141.1V32.224H139.527V36.496C139.527 36.82 139.607 37.05 139.767 37.187 139.931 37.323 140.159 37.392 140.45 37.392 140.637 37.392 140.81 37.373 140.97 37.337V38.369C140.828 38.406 140.699 38.431 140.58 38.444 140.462 38.458 140.332 38.465 140.19 38.465ZM134.476 31.191H135.733V38.328H134.476V31.191ZM135.104 30.098C134.954 30.098 134.813 30.061 134.681 29.988 134.553 29.911 134.451 29.808 134.373 29.681 134.3 29.549 134.264 29.407 134.264 29.257 134.264 29.106 134.3 28.967 134.373 28.84 134.451 28.708 134.553 28.605 134.681 28.532 134.813 28.455 134.954 28.416 135.104 28.416 135.255 28.416 135.394 28.455 135.521 28.532 135.654 28.605 135.756 28.708 135.829 28.84 135.907 28.967 135.945 29.106 135.945 29.257 135.945 29.407 135.907 29.549 135.829 29.681 135.756 29.808 135.654 29.911 135.521 29.988 135.394 30.061 135.255 30.098 135.104 30.098ZM128.057 28.525H129.314V31.191H128.057V28.525ZM125.965 38.526C125.354 38.526 124.83 38.374 124.393 38.068 123.955 37.759 123.622 37.323 123.395 36.763 123.167 36.198 123.053 35.535 123.053 34.773 123.053 34.017 123.171 33.354 123.408 32.784 123.65 32.215 123.994 31.775 124.44 31.465 124.887 31.15 125.409 30.993 126.006 30.993 126.389 30.993 126.737 31.066 127.052 31.212 127.371 31.358 127.642 31.579 127.865 31.875 128.093 32.171 128.262 32.54 128.371 32.982L128.057 32.702V31.191H129.314V38.328H128.098V36.735L128.357 36.537C128.212 37.162 127.924 37.649 127.496 38 127.068 38.351 126.557 38.526 125.965 38.526ZM126.19 37.46C126.582 37.46 126.917 37.346 127.195 37.118 127.478 36.886 127.69 36.567 127.831 36.161 127.977 35.751 128.05 35.279 128.05 34.746 128.05 34.217 127.977 33.75 127.831 33.345 127.69 32.939 127.478 32.625 127.195 32.401 126.917 32.173 126.582 32.06 126.19 32.06 125.799 32.06 125.466 32.173 125.192 32.401 124.919 32.625 124.714 32.939 124.577 33.345 124.44 33.746 124.372 34.213 124.372 34.746 124.372 35.279 124.44 35.751 124.577 36.161 124.714 36.567 124.919 36.886 125.192 37.118 125.466 37.346 125.799 37.46 126.19 37.46ZM120.161 28.525H121.419V38.328H120.161V28.525ZM116.866 31.191H118.124V38.328H116.866V31.191ZM117.495 30.098C117.345 30.098 117.203 30.061 117.071 29.988 116.944 29.911 116.841 29.808 116.764 29.681 116.691 29.549 116.654 29.407 116.654 29.257 116.654 29.106 116.691 28.967 116.764 28.84 116.841 28.708 116.944 28.605 117.071 28.532 117.203 28.455 117.345 28.416 117.495 28.416 117.646 28.416 117.785 28.455 117.912 28.532 118.044 28.605 118.147 28.708 118.22 28.84 118.297 28.967 118.336 29.106 118.336 29.257 118.336 29.407 118.297 29.549 118.22 29.681 118.147 29.808 118.044 29.911 117.912 29.988 117.785 30.061 117.646 30.098 117.495 30.098ZM111.445 38.526C110.962 38.526 110.545 38.433 110.194 38.246 109.848 38.059 109.581 37.788 109.395 37.433 109.212 37.077 109.121 36.649 109.121 36.148V31.191H110.379V36.004C110.379 36.464 110.5 36.822 110.741 37.077 110.983 37.332 111.334 37.46 111.794 37.46 112.145 37.46 112.452 37.373 112.717 37.2 112.986 37.027 113.195 36.772 113.346 36.435 113.496 36.093 113.571 35.678 113.571 35.19V31.191H114.829V38.328H113.599V36.148L113.811 36.674C113.706 37.052 113.544 37.38 113.325 37.658 113.111 37.936 112.844 38.15 112.525 38.301 112.206 38.451 111.846 38.526 111.445 38.526ZM104.589 38.526C104.206 38.526 103.855 38.454 103.536 38.308 103.222 38.162 102.951 37.941 102.723 37.645 102.499 37.348 102.333 36.979 102.224 36.537L102.497 36.817V38.328H101.28V31.191H102.538V32.784L102.237 32.982C102.333 32.568 102.495 32.212 102.723 31.916 102.951 31.615 103.229 31.387 103.557 31.232 103.889 31.073 104.252 30.993 104.644 30.993 105.25 30.993 105.769 31.148 106.202 31.458 106.64 31.763 106.972 32.201 107.2 32.771 107.428 33.336 107.542 33.999 107.542 34.76 107.542 35.516 107.424 36.179 107.187 36.749 106.95 37.314 106.608 37.752 106.161 38.062 105.715 38.371 105.19 38.526 104.589 38.526ZM104.404 37.46C104.796 37.46 105.129 37.348 105.402 37.125 105.676 36.897 105.881 36.583 106.018 36.182 106.154 35.776 106.223 35.307 106.223 34.773 106.223 34.24 106.154 33.771 106.018 33.365 105.881 32.955 105.676 32.636 105.402 32.408 105.129 32.176 104.796 32.06 104.404 32.06 104.012 32.06 103.675 32.176 103.393 32.408 103.115 32.636 102.903 32.955 102.757 33.365 102.616 33.771 102.545 34.24 102.545 34.773 102.545 35.302 102.616 35.769 102.757 36.175 102.903 36.58 103.115 36.897 103.393 37.125 103.675 37.348 104.012 37.46 104.404 37.46ZM101.28 28.525H102.538V31.191H101.28V28.525ZM93.337 38.526C92.699 38.526 92.138 38.371 91.655 38.062 91.172 37.752 90.799 37.312 90.534 36.742 90.274 36.173 90.145 35.509 90.145 34.753 90.145 33.996 90.274 33.336 90.534 32.771 90.799 32.201 91.172 31.763 91.655 31.458 92.138 31.148 92.699 30.993 93.337 30.993 93.975 30.993 94.536 31.148 95.019 31.458 95.502 31.763 95.873 32.201 96.133 32.771 96.397 33.336 96.529 33.996 96.529 34.753 96.529 35.509 96.397 36.173 96.133 36.742 95.873 37.312 95.502 37.752 95.019 38.062 94.536 38.371 93.975 38.526 93.337 38.526ZM93.337 37.46C93.729 37.46 94.064 37.355 94.342 37.146 94.624 36.931 94.839 36.621 94.984 36.216 95.135 35.81 95.21 35.323 95.21 34.753 95.21 33.896 95.046 33.233 94.718 32.764 94.39 32.294 93.929 32.06 93.337 32.06 92.945 32.06 92.608 32.164 92.325 32.374 92.047 32.584 91.833 32.891 91.683 33.297 91.537 33.698 91.464 34.183 91.464 34.753 91.464 35.323 91.537 35.81 91.683 36.216 91.833 36.621 92.047 36.931 92.325 37.146 92.608 37.355 92.945 37.46 93.337 37.46ZM88.333 38.465C87.932 38.465 87.59 38.403 87.308 38.28 87.025 38.157 86.804 37.957 86.645 37.679 86.49 37.396 86.412 37.029 86.412 36.578V32.224H85.154V31.191H85.277C85.587 31.191 85.836 31.144 86.023 31.048 86.214 30.952 86.357 30.804 86.453 30.604 86.549 30.403 86.606 30.136 86.624 29.804L86.665 29.1H87.67V31.301L87.52 31.191H89.242V32.224H87.67V36.496C87.67 36.82 87.75 37.05 87.909 37.187 88.073 37.323 88.301 37.392 88.593 37.392 88.78 37.392 88.953 37.373 89.112 37.337V38.369C88.971 38.406 88.841 38.431 88.723 38.444 88.604 38.458 88.474 38.465 88.333 38.465ZM78.079 38.526C77.446 38.526 76.885 38.39 76.398 38.116 75.91 37.838 75.527 37.417 75.249 36.852 74.971 36.287 74.832 35.585 74.832 34.746 74.832 33.994 74.971 33.336 75.249 32.771 75.532 32.201 75.919 31.763 76.411 31.458 76.903 31.148 77.459 30.993 78.079 30.993 78.69 30.993 79.225 31.134 79.686 31.417 80.146 31.7 80.501 32.114 80.752 32.661 81.007 33.204 81.135 33.86 81.135 34.63 81.135 34.771 81.135 34.912 81.135 35.054H75.475V34.042H80.417L79.802 34.377C79.802 33.857 79.733 33.425 79.597 33.078 79.465 32.732 79.269 32.474 79.009 32.306 78.754 32.137 78.439 32.053 78.065 32.053 77.687 32.053 77.352 32.153 77.061 32.353 76.769 32.554 76.539 32.85 76.37 33.242 76.206 33.634 76.124 34.106 76.124 34.657V34.732C76.124 35.339 76.206 35.844 76.37 36.25 76.534 36.656 76.769 36.959 77.074 37.159 77.38 37.36 77.744 37.46 78.168 37.46 78.61 37.46 78.977 37.33 79.269 37.07 79.565 36.806 79.747 36.432 79.815 35.949H81.094C81.039 36.46 80.884 36.909 80.629 37.296 80.374 37.683 80.027 37.986 79.59 38.205 79.157 38.419 78.653 38.526 78.079 38.526ZM71.94 28.525H73.198V38.328H71.94V28.525ZM67.347 38.526C66.964 38.526 66.613 38.454 66.294 38.308 65.98 38.162 65.708 37.941 65.481 37.645 65.257 37.348 65.091 36.979 64.981 36.537L65.255 36.817V38.328H64.038V31.191H65.296V32.784L64.995 32.982C65.091 32.568 65.253 32.212 65.481 31.916 65.708 31.615 65.986 31.387 66.315 31.232 66.647 31.073 67.009 30.993 67.401 30.993 68.008 30.993 68.527 31.148 68.96 31.458 69.398 31.763 69.73 32.201 69.958 32.771 70.186 33.336 70.3 33.999 70.3 34.76 70.3 35.516 70.181 36.179 69.944 36.749 69.707 37.314 69.366 37.752 68.919 38.062 68.472 38.371 67.948 38.526 67.347 38.526ZM67.162 37.46C67.554 37.46 67.887 37.348 68.16 37.125 68.434 36.897 68.639 36.583 68.775 36.182 68.912 35.776 68.981 35.307 68.981 34.773 68.981 34.24 68.912 33.771 68.775 33.365 68.639 32.955 68.434 32.636 68.16 32.408 67.887 32.176 67.554 32.06 67.162 32.06 66.77 32.06 66.433 32.176 66.15 32.408 65.872 32.636 65.661 32.955 65.515 33.365 65.373 33.771 65.303 34.24 65.303 34.773 65.303 35.302 65.373 35.769 65.515 36.175 65.661 36.58 65.872 36.897 66.15 37.125 66.433 37.348 66.77 37.46 67.162 37.46ZM64.038 28.525H65.296V31.191H64.038V28.525ZM58.576 38.526C58.134 38.526 57.735 38.442 57.38 38.273 57.024 38.1 56.744 37.854 56.539 37.535 56.339 37.216 56.238 36.845 56.238 36.421 56.238 35.769 56.434 35.263 56.826 34.903 57.223 34.539 57.776 34.3 58.487 34.186L59.622 34.001C59.914 33.951 60.142 33.896 60.306 33.837 60.47 33.773 60.591 33.691 60.668 33.591 60.745 33.486 60.784 33.347 60.784 33.174 60.784 32.982 60.732 32.8 60.627 32.627 60.522 32.454 60.36 32.313 60.142 32.203 59.923 32.094 59.652 32.039 59.328 32.039 58.872 32.039 58.501 32.16 58.214 32.401 57.931 32.638 57.776 32.967 57.749 33.386H56.43C56.443 32.93 56.573 32.522 56.819 32.162 57.065 31.798 57.405 31.513 57.838 31.308 58.271 31.098 58.768 30.993 59.328 30.993 59.898 30.993 60.388 31.096 60.798 31.301 61.208 31.501 61.52 31.795 61.734 32.183 61.953 32.57 62.063 33.033 62.063 33.57V36.674C62.063 37.007 62.085 37.314 62.131 37.597 62.181 37.875 62.252 38.052 62.343 38.13V38.328H61.01C60.955 38.132 60.91 37.904 60.873 37.645 60.841 37.38 60.825 37.123 60.825 36.872L61.051 36.94C60.941 37.237 60.768 37.506 60.531 37.747 60.294 37.989 60.007 38.18 59.67 38.321 59.333 38.458 58.968 38.526 58.576 38.526ZM58.856 37.474C59.253 37.474 59.599 37.385 59.896 37.207 60.192 37.025 60.417 36.781 60.572 36.476 60.732 36.166 60.812 35.822 60.812 35.443V34.377L60.955 34.398C60.823 34.548 60.654 34.666 60.449 34.753 60.249 34.84 59.978 34.917 59.636 34.985L58.884 35.136C58.424 35.231 58.086 35.377 57.872 35.573 57.658 35.765 57.551 36.034 57.551 36.38 57.551 36.713 57.674 36.979 57.92 37.18 58.171 37.376 58.483 37.474 58.856 37.474ZM49.177 31.191H50.517L52.533 37.084H52.294L54.27 31.191H55.548L52.957 38.328H51.795L49.177 31.191ZM45.267 38.526C44.629 38.526 44.068 38.371 43.585 38.062 43.102 37.752 42.728 37.312 42.464 36.742 42.204 36.173 42.074 35.509 42.074 34.753 42.074 33.996 42.204 33.336 42.464 32.771 42.728 32.201 43.102 31.763 43.585 31.458 44.068 31.148 44.629 30.993 45.267 30.993 45.905 30.993 46.465 31.148 46.948 31.458 47.431 31.763 47.803 32.201 48.063 32.771 48.327 33.336 48.459 33.996 48.459 34.753 48.459 35.509 48.327 36.173 48.063 36.742 47.803 37.312 47.431 37.752 46.948 38.062 46.465 38.371 45.905 38.526 45.267 38.526ZM45.267 37.46C45.659 37.46 45.994 37.355 46.272 37.146 46.554 36.931 46.768 36.621 46.914 36.216 47.065 35.81 47.14 35.323 47.14 34.753 47.14 33.896 46.976 33.233 46.648 32.764 46.319 32.294 45.859 32.06 45.267 32.06 44.875 32.06 44.537 32.164 44.255 32.374 43.977 32.584 43.763 32.891 43.612 33.297 43.467 33.698 43.394 34.183 43.394 34.753 43.394 35.323 43.467 35.81 43.612 36.216 43.763 36.621 43.977 36.931 44.255 37.146 44.537 37.355 44.875 37.46 45.267 37.46ZM35.867 28.525H37.152V37.556L36.934 37.166H41.425V38.328H35.867V28.525ZM25.606 28.525H26.864V34.63H26.529L29.647 31.191H31.246L26.331 36.496 26.864 35.402V38.328H25.606V28.525ZM27.705 34.493 28.389 33.304 31.526 38.328H30.016L27.705 34.493ZM21.211 38.526C20.591 38.526 20.051 38.426 19.591 38.226 19.135 38.021 18.782 37.731 18.531 37.357 18.281 36.984 18.151 36.542 18.142 36.031H19.461C19.479 36.487 19.65 36.84 19.974 37.091 20.297 37.337 20.719 37.46 21.238 37.46 21.676 37.46 22.027 37.364 22.291 37.173 22.56 36.981 22.694 36.722 22.694 36.394 22.694 36.129 22.599 35.922 22.407 35.772 22.22 35.621 21.915 35.503 21.491 35.416L20.315 35.177C19.627 35.04 19.121 34.815 18.798 34.5 18.474 34.181 18.313 33.769 18.313 33.263 18.313 32.834 18.424 32.449 18.648 32.107 18.871 31.761 19.192 31.49 19.611 31.294 20.031 31.093 20.525 30.993 21.095 30.993 21.678 30.993 22.177 31.096 22.592 31.301 23.007 31.506 23.323 31.791 23.542 32.155 23.761 32.515 23.879 32.926 23.898 33.386H22.606C22.587 32.967 22.439 32.638 22.161 32.401 21.888 32.16 21.523 32.039 21.067 32.039 20.78 32.039 20.53 32.085 20.315 32.176 20.101 32.262 19.935 32.388 19.816 32.552 19.698 32.711 19.639 32.896 19.639 33.106 19.639 33.342 19.721 33.532 19.885 33.673 20.049 33.814 20.309 33.919 20.664 33.987L21.977 34.24C22.414 34.327 22.783 34.457 23.084 34.63 23.385 34.799 23.613 35.015 23.768 35.279 23.927 35.544 24.007 35.851 24.007 36.202 24.007 36.694 23.884 37.116 23.638 37.467 23.396 37.818 23.064 38.082 22.64 38.26 22.216 38.438 21.74 38.526 21.211 38.526ZM12.393 28.525H13.917L17.417 38.328H16.029L13.022 29.551H13.261L10.219 38.328H8.858L12.393 28.525ZM10.82 34.199H15.599V35.348H10.82V34.199Z"/></svg>